<?xml version="1.0" encoding="UTF-8" standalone="no"?>
<!DOCTYPE svg PUBLIC "-//W3C//DTD SVG 1.1//EN" "http://www.w3.org/Graphics/SVG/1.1/DTD/svg11.dtd">
<svg version="1.1" xmlns="http://www.w3.org/2000/svg" xmlns:xlink="http://www.w3.org/1999/xlink" preserveAspectRatio="xMidYMid meet" viewBox="0 0 640 640" width="640" height="640"><defs><path d="M274.43 10.06L280.18 10.63L285.86 11.42L291.46 12.43L296.99 13.65L302.43 15.07L307.79 16.7L313.05 18.53L318.22 20.54L323.28 22.75L328.24 25.15L333.09 27.72L337.82 30.47L342.43 33.38L346.92 36.47L351.28 39.72L355.51 43.12L359.59 46.68L363.54 50.39L367.33 54.24L369.35 56.45L371.02 55.07L373.92 52.85L376.91 50.75L379.98 48.76L383.14 46.88L386.36 45.13L389.67 43.5L393.04 41.99L396.48 40.62L399.98 39.37L403.55 38.26L407.17 37.29L410.85 36.46L414.59 35.77L418.37 35.23L422.19 34.84L426.06 34.61L429.98 34.53L433.89 34.61L437.76 34.84L441.58 35.23L445.37 35.77L449.1 36.46L452.78 37.29L456.4 38.26L459.97 39.37L463.47 40.62L466.91 41.99L470.29 43.5L473.59 45.13L476.82 46.88L479.97 48.76L483.04 50.75L486.03 52.85L488.93 55.07L491.74 57.39L494.46 59.82L497.09 62.35L499.62 64.97L502.04 67.69L504.37 70.51L506.58 73.41L508.69 76.4L510.68 79.47L512.55 82.62L514.31 85.85L515.94 89.15L516.97 91.47L519.7 91.74L524.17 92.34L528.58 93.12L532.93 94.05L537.21 95.14L541.43 96.39L545.57 97.79L549.63 99.34L553.61 101.03L557.52 102.87L561.33 104.84L565.05 106.95L568.68 109.19L572.21 111.56L575.64 114.05L578.97 116.66L582.18 119.39L585.28 122.23L588.27 125.18L591.14 128.24L593.88 131.41L596.5 134.67L598.98 138.03L601.34 141.49L603.55 145.03L605.62 148.66L607.55 152.37L609.33 156.16L610.96 160.03L612.43 163.97L613.74 167.98L614.89 172.06L615.87 176.2L616.68 180.4L617.32 184.65L617.78 188.95L618.06 193.31L618.15 197.7L618.06 202.1L617.78 206.45L617.32 210.76L616.68 215.01L615.87 219.21L614.89 223.34L613.74 227.42L612.43 231.43L610.96 235.37L609.33 239.24L607.55 243.03L605.62 246.75L603.55 250.38L601.34 253.92L598.98 257.37L596.5 260.73L593.88 264L591.14 267.16L588.27 270.22L585.28 273.18L582.18 276.02L578.97 278.75L575.64 281.36L572.21 283.85L568.68 286.22L565.05 288.46L561.33 290.56L560.66 290.91L560.72 294.02L560.63 298.36L560.37 302.66L559.94 306.91L559.34 311.11L558.58 315.25L557.65 319.34L556.57 323.36L555.34 327.32L553.96 331.22L552.43 335.03L550.76 338.78L548.95 342.45L547 346.03L544.92 349.53L542.71 352.94L540.37 356.26L537.91 359.48L535.33 362.6L532.64 365.63L529.83 368.54L526.92 371.35L523.89 374.04L520.77 376.62L517.55 379.08L514.23 381.42L510.82 383.63L507.32 385.71L503.74 387.66L500.07 389.47L496.33 391.14L492.51 392.67L488.61 394.05L484.66 395.28L480.63 396.36L476.55 397.29L472.4 398.05L468.2 398.65L463.95 399.08L459.66 399.34L455.31 399.43L450.97 399.34L446.67 399.08L442.42 398.65L438.23 398.05L434.08 397.29L430 396.36L425.97 395.28L422.01 394.05L418.12 392.67L414.3 391.14L410.56 389.47L408.46 388.43L404.97 392.44L401.23 396.42L397.34 400.25L393.32 403.93L389.15 407.45L384.86 410.8L380.43 413.99L375.89 417.01L371.22 419.85L366.45 422.51L361.56 424.98L356.57 427.27L351.48 429.35L346.29 431.24L341.01 432.92L335.65 434.4L330.2 435.66L324.68 436.7L319.08 437.51L313.42 438.1L307.69 438.46L301.9 438.58L296.11 438.46L290.38 438.1L284.72 437.51L279.12 436.7L273.6 435.66L268.15 434.4L262.79 432.92L257.51 431.24L252.32 429.35L247.23 427.27L242.24 424.98L237.35 422.51L232.57 419.85L227.91 417.01L223.36 413.99L218.94 410.8L214.65 407.45L210.48 403.93L206.45 400.25L202.57 396.42L198.83 392.44L195.23 388.31L191.8 384.05L188.52 379.65L185.4 375.12L182.46 370.47L179.68 365.69L178.71 363.86L178.55 363.9L173.65 365.02L168.68 365.95L163.65 366.68L158.56 367.21L153.41 367.53L148.2 367.64L143 367.53L137.84 367.21L132.75 366.68L127.72 365.95L122.75 365.02L117.85 363.9L113.03 362.59L108.28 361.09L103.62 359.4L99.04 357.54L94.55 355.5L90.16 353.3L85.86 350.92L81.66 348.39L77.58 345.7L73.6 342.85L69.74 339.86L65.99 336.72L62.37 333.43L58.87 330.02L55.51 326.46L52.28 322.78L49.19 318.98L46.24 315.05L43.44 311.01L40.79 306.86L38.3 302.6L35.96 298.23L33.79 293.77L31.78 289.21L29.95 284.56L28.29 279.82L26.82 274.99L25.52 270.09L24.42 265.12L23.5 260.07L22.79 254.96L22.27 249.78L21.95 244.55L21.85 239.26L21.95 233.97L22.27 228.73L22.79 223.56L23.5 218.44L24.42 213.4L25.52 208.42L26.82 203.52L28.29 198.7L29.95 193.96L31.78 189.31L33.79 184.75L35.96 180.28L38.3 175.92L40.79 171.65L43.44 167.5L46.24 163.46L49.19 159.53L52.28 155.73L55.51 152.05L58.87 148.5L62.37 145.08L65.99 141.8L69.74 138.66L73.6 135.66L77.58 132.82L81.66 130.12L85.86 127.59L90.16 125.22L94.55 123.01L99.04 120.97L103.62 119.11L108.28 117.43L113.03 115.93L117.85 114.61L122.75 113.49L124.95 113.08L125.78 110.04L127.45 104.81L129.32 99.68L131.39 94.63L133.65 89.69L136.1 84.85L138.74 80.11L141.55 75.49L144.54 70.99L147.7 66.61L151.03 62.35L154.51 58.23L158.16 54.24L161.96 50.39L165.9 46.68L169.99 43.12L174.21 39.72L178.57 36.47L183.06 33.38L187.67 30.47L192.4 27.72L197.25 25.15L202.21 22.75L207.27 20.54L212.44 18.53L217.7 16.7L223.06 15.07L228.5 13.65L234.03 12.43L239.63 11.42L245.31 10.63L251.06 10.06L256.87 9.72L262.75 9.6L268.62 9.72L274.43 10.06Z" id="dbN3gn9BS"></path><linearGradient id="gradienta7kYGvgIJD" gradientUnits="userSpaceOnUse" x1="320" y1="9.6" x2="320" y2="438.58"><stop style="stop-color: #ffffff;stop-opacity: 1.00" offset="0%"></stop><stop style="stop-color: #e0e0e0;stop-opacity: 1" offset="100%"></stop></linearGradient><path d="M501.68 489.26C501.68 515.73 478.07 537.23 448.98 537.23C419.89 537.23 396.28 515.73 396.28 489.26C396.28 462.78 419.89 441.28 448.98 441.28C478.07 441.28 501.68 462.78 501.68 489.26Z" id="bCnbCRRbM"></path><path d="M579.8 578.45C579.8 599.7 561.92 616.96 539.9 616.96C517.87 616.96 500 599.7 500 578.45C500 557.19 517.87 539.93 539.9 539.93C561.92 539.93 579.8 557.19 579.8 578.45Z" id="cJQQ0UuUU"></path><path d="M363.24 147.77L329.39 174.92L298.38 199.8" id="elmoiWH6N"></path><path d="M492.57 116.08C496.67 116.08 500 119.4 500 123.5C500 137.15 500 170.68 500 184.34C500 188.43 496.67 191.76 492.57 191.76C465.27 191.76 390.8 191.76 363.5 191.76C359.4 191.76 356.08 188.43 356.08 184.34C356.08 170.68 356.08 137.15 356.08 123.5C356.08 119.4 359.4 116.08 363.5 116.08C390.8 116.08 465.27 116.08 492.57 116.08Z" id="b30mDpfr71"></path><path d="M363.24 310.47L329.39 283.32L298.38 258.45" id="e2V6iIkhOc"></path><path d="M299.19 191.76C304.71 191.76 309.19 196.23 309.19 201.76C309.19 214.89 309.19 244.3 309.19 257.43C309.19 262.96 304.71 267.43 299.19 267.43C262.41 267.43 162.05 267.43 125.27 267.43C119.75 267.43 115.27 262.96 115.27 257.43C115.27 244.3 115.27 214.89 115.27 201.76C115.27 196.23 119.75 191.76 125.27 191.76C162.05 191.76 262.41 191.76 299.19 191.76Z" id="d5Uvo0KVc"></path><path d="M492.57 267.43C496.67 267.43 500 270.76 500 274.85C500 288.5 500 322.04 500 335.69C500 339.79 496.67 343.11 492.57 343.11C465.27 343.11 390.8 343.11 363.5 343.11C359.4 343.11 356.08 339.79 356.08 335.69C356.08 322.04 356.08 288.5 356.08 274.85C356.08 270.76 359.4 267.43 363.5 267.43C390.8 267.43 465.27 267.43 492.57 267.43Z" id="g3NDH3M7Ej"></path></defs><g><g><g><g><filter id="shadow14454069" x="3.85" y="-8.4" width="633.3" height="474.98" filterUnits="userSpaceOnUse" primitiveUnits="userSpaceOnUse"><feFlood></feFlood><feComposite in2="SourceAlpha" operator="in"></feComposite><feGaussianBlur stdDeviation="1"></feGaussianBlur><feOffset dx="1" dy="10" result="afterOffset"></feOffset><feFlood flood-color="#cccccc" flood-opacity="1"></feFlood><feComposite in2="afterOffset" operator="in"></feComposite><feMorphology operator="dilate" radius="1"></feMorphology><feComposite in2="SourceAlpha" operator="out"></feComposite></filter><path d="M274.43 10.06L280.18 10.63L285.86 11.42L291.46 12.43L296.99 13.65L302.43 15.07L307.79 16.7L313.05 18.53L318.22 20.54L323.28 22.75L328.24 25.15L333.09 27.72L337.82 30.47L342.43 33.38L346.92 36.47L351.28 39.72L355.51 43.12L359.59 46.68L363.54 50.39L367.33 54.24L369.35 56.45L371.02 55.07L373.92 52.85L376.91 50.75L379.98 48.76L383.14 46.88L386.36 45.13L389.67 43.5L393.04 41.99L396.48 40.62L399.98 39.37L403.55 38.26L407.17 37.29L410.85 36.46L414.59 35.77L418.37 35.23L422.19 34.84L426.06 34.61L429.98 34.53L433.89 34.61L437.76 34.84L441.58 35.23L445.37 35.77L449.1 36.46L452.78 37.29L456.4 38.26L459.97 39.37L463.47 40.62L466.91 41.99L470.29 43.5L473.59 45.13L476.82 46.88L479.97 48.76L483.04 50.75L486.03 52.85L488.93 55.07L491.74 57.39L494.46 59.82L497.09 62.35L499.62 64.97L502.04 67.69L504.37 70.51L506.58 73.41L508.69 76.4L510.68 79.47L512.55 82.62L514.31 85.85L515.94 89.15L516.97 91.47L519.7 91.74L524.17 92.34L528.58 93.12L532.93 94.05L537.21 95.14L541.43 96.39L545.57 97.79L549.63 99.34L553.61 101.03L557.52 102.87L561.33 104.84L565.05 106.95L568.68 109.19L572.21 111.56L575.64 114.05L578.97 116.66L582.18 119.39L585.28 122.23L588.27 125.18L591.14 128.24L593.88 131.41L596.5 134.67L598.98 138.03L601.34 141.49L603.55 145.03L605.62 148.66L607.55 152.37L609.33 156.16L610.96 160.03L612.43 163.97L613.74 167.98L614.89 172.06L615.87 176.2L616.68 180.4L617.32 184.65L617.78 188.95L618.06 193.31L618.15 197.7L618.06 202.1L617.78 206.45L617.32 210.76L616.68 215.01L615.87 219.21L614.89 223.34L613.74 227.42L612.43 231.43L610.96 235.37L609.33 239.24L607.55 243.03L605.62 246.75L603.55 250.38L601.34 253.92L598.98 257.37L596.5 260.73L593.88 264L591.14 267.16L588.27 270.22L585.28 273.18L582.18 276.02L578.97 278.75L575.64 281.36L572.21 283.85L568.68 286.22L565.05 288.46L561.33 290.56L560.66 290.91L560.72 294.02L560.63 298.36L560.37 302.66L559.94 306.91L559.34 311.11L558.58 315.25L557.65 319.34L556.57 323.36L555.34 327.32L553.96 331.22L552.43 335.03L550.76 338.78L548.95 342.45L547 346.03L544.92 349.53L542.71 352.94L540.37 356.26L537.91 359.48L535.33 362.6L532.64 365.63L529.83 368.54L526.92 371.35L523.89 374.04L520.77 376.62L517.55 379.08L514.23 381.42L510.82 383.63L507.32 385.71L503.74 387.66L500.07 389.47L496.33 391.14L492.51 392.67L488.61 394.05L484.66 395.28L480.63 396.36L476.55 397.29L472.4 398.05L468.2 398.65L463.95 399.08L459.66 399.34L455.31 399.43L450.97 399.34L446.67 399.08L442.42 398.65L438.23 398.05L434.08 397.29L430 396.36L425.97 395.28L422.01 394.05L418.12 392.67L414.3 391.14L410.56 389.47L408.46 388.43L404.97 392.44L401.23 396.42L397.34 400.25L393.32 403.93L389.15 407.45L384.86 410.8L380.43 413.99L375.89 417.01L371.22 419.85L366.45 422.51L361.56 424.98L356.57 427.27L351.48 429.35L346.29 431.24L341.01 432.92L335.65 434.4L330.2 435.66L324.68 436.7L319.08 437.51L313.42 438.1L307.69 438.46L301.9 438.58L296.11 438.46L290.38 438.1L284.72 437.51L279.12 436.7L273.6 435.66L268.15 434.4L262.79 432.92L257.51 431.24L252.32 429.35L247.23 427.27L242.24 424.98L237.35 422.51L232.57 419.85L227.91 417.01L223.36 413.99L218.94 410.8L214.65 407.45L210.48 403.93L206.45 400.25L202.57 396.42L198.83 392.44L195.23 388.31L191.8 384.05L188.52 379.65L185.4 375.12L182.46 370.47L179.68 365.69L178.71 363.86L178.55 363.9L173.65 365.02L168.68 365.95L163.65 366.68L158.56 367.21L153.41 367.53L148.2 367.64L143 367.53L137.84 367.21L132.75 366.68L127.72 365.95L122.75 365.02L117.85 363.9L113.03 362.59L108.28 361.09L103.62 359.4L99.04 357.54L94.55 355.5L90.16 353.3L85.86 350.92L81.66 348.39L77.58 345.7L73.6 342.85L69.74 339.86L65.99 336.72L62.37 333.43L58.87 330.02L55.51 326.46L52.28 322.78L49.19 318.98L46.24 315.05L43.44 311.01L40.79 306.86L38.3 302.6L35.96 298.23L33.79 293.77L31.78 289.21L29.95 284.56L28.29 279.82L26.82 274.99L25.52 270.09L24.42 265.12L23.5 260.07L22.79 254.96L22.27 249.78L21.95 244.55L21.85 239.26L21.95 233.97L22.27 228.73L22.79 223.56L23.5 218.44L24.42 213.4L25.52 208.42L26.82 203.52L28.29 198.7L29.95 193.96L31.78 189.31L33.79 184.75L35.96 180.28L38.3 175.92L40.79 171.65L43.44 167.5L46.24 163.46L49.19 159.53L52.28 155.73L55.51 152.05L58.87 148.5L62.37 145.08L65.99 141.8L69.74 138.66L73.6 135.66L77.58 132.82L81.66 130.12L85.86 127.59L90.16 125.22L94.55 123.01L99.04 120.97L103.62 119.11L108.28 117.43L113.03 115.93L117.85 114.61L122.75 113.49L124.95 113.08L125.78 110.04L127.45 104.81L129.32 99.68L131.39 94.63L133.65 89.69L136.1 84.85L138.74 80.11L141.55 75.49L144.54 70.99L147.7 66.61L151.03 62.35L154.51 58.23L158.16 54.24L161.96 50.39L165.9 46.68L169.99 43.12L174.21 39.72L178.57 36.47L183.06 33.38L187.67 30.47L192.4 27.72L197.25 25.15L202.21 22.75L207.27 20.54L212.44 18.53L217.7 16.7L223.06 15.07L228.5 13.65L234.03 12.43L239.63 11.42L245.31 10.63L251.06 10.06L256.87 9.72L262.75 9.6L268.62 9.72L274.43 10.06Z" id="c4JU97rRUY" fill="white" fill-opacity="1" filter="url(#shadow14454069)"></path></g><use xlink:href="#dbN3gn9BS" opacity="1" fill="url(#gradienta7kYGvgIJD)"></use><g><use xlink:href="#dbN3gn9BS" opacity="1" fill-opacity="0" stroke="#000000" stroke-width="1" stroke-opacity="1"></use></g></g><g><g><filter id="shadow16224385" x="378.28" y="423.28" width="142.41" height="141.95" filterUnits="userSpaceOnUse" primitiveUnits="userSpaceOnUse"><feFlood></feFlood><feComposite in2="SourceAlpha" operator="in"></feComposite><feGaussianBlur stdDeviation="1"></feGaussianBlur><feOffset dx="1" dy="10" result="afterOffset"></feOffset><feFlood flood-color="#cccccc" flood-opacity="1"></feFlood><feComposite in2="afterOffset" operator="in"></feComposite><feMorphology operator="dilate" radius="1"></feMorphology><feComposite in2="SourceAlpha" operator="out"></feComposite></filter><path d="M501.68 489.26C501.68 515.73 478.07 537.23 448.98 537.23C419.89 537.23 396.28 515.73 396.28 489.26C396.28 462.78 419.89 441.28 448.98 441.28C478.07 441.28 501.68 462.78 501.68 489.26Z" id="a1v6MASWEJ" fill="white" fill-opacity="1" filter="url(#shadow16224385)"></path></g><use xlink:href="#bCnbCRRbM" opacity="1" fill="#e0e0e0" fill-opacity="1"></use><g><use xlink:href="#bCnbCRRbM" opacity="1" fill-opacity="0" stroke="#000000" stroke-width="1" stroke-opacity="1"></use></g></g><g><g><filter id="shadow15826959" x="482" y="521.93" width="116.8" height="123.03" filterUnits="userSpaceOnUse" primitiveUnits="userSpaceOnUse"><feFlood></feFlood><feComposite in2="SourceAlpha" operator="in"></feComposite><feGaussianBlur stdDeviation="1"></feGaussianBlur><feOffset dx="1" dy="10" result="afterOffset"></feOffset><feFlood flood-color="#cccccc" flood-opacity="0.5"></feFlood><feComposite in2="afterOffset" operator="in"></feComposite><feMorphology operator="dilate" radius="1"></feMorphology><feComposite in2="SourceAlpha" operator="out"></feComposite></filter><path d="M579.8 578.45C579.8 599.7 561.92 616.96 539.9 616.96C517.87 616.96 500 599.7 500 578.45C500 557.19 517.87 539.93 539.9 539.93C561.92 539.93 579.8 557.19 579.8 578.45Z" id="b2nZlOSO1L" fill="white" fill-opacity="1" filter="url(#shadow15826959)"></path></g><use xlink:href="#cJQQ0UuUU" opacity="1" fill="#e0e0e0" fill-opacity="1"></use><g><use xlink:href="#cJQQ0UuUU" opacity="1" fill-opacity="0" stroke="#000000" stroke-width="1" stroke-opacity="1"></use></g></g><g><use xlink:href="#elmoiWH6N" opacity="1" fill="#000000" fill-opacity="1"></use><g><use xlink:href="#elmoiWH6N" opacity="1" fill-opacity="0" stroke="#000000" stroke-width="10" stroke-opacity="1"></use></g></g><g><use xlink:href="#b30mDpfr71" opacity="1" fill="#68b723" fill-opacity="1"></use><g><use xlink:href="#b30mDpfr71" opacity="1" fill-opacity="0" stroke="#000000" stroke-width="1" stroke-opacity="1"></use></g></g><g><use xlink:href="#e2V6iIkhOc" opacity="1" fill="#000000" fill-opacity="1"></use><g><use xlink:href="#e2V6iIkhOc" opacity="1" fill-opacity="0" stroke="#000000" stroke-width="10" stroke-opacity="1"></use></g></g><g><use xlink:href="#d5Uvo0KVc" opacity="1" fill="#c6262e" fill-opacity="1"></use><g><use xlink:href="#d5Uvo0KVc" opacity="1" fill-opacity="0" stroke="#000000" stroke-width="1" stroke-opacity="1"></use></g></g><g><use xlink:href="#g3NDH3M7Ej" opacity="1" fill="#3689e6" fill-opacity="1"></use><g><use xlink:href="#g3NDH3M7Ej" opacity="1" fill-opacity="0" stroke="#000000" stroke-width="1" stroke-opacity="1"></use></g></g></g></g></svg>