<?xml version="1.0" encoding="utf-8"?>

<!DOCTYPE svg PUBLIC "-//W3C//DTD SVG 1.1//EN" "http://www.w3.org/Graphics/SVG/1.1/DTD/svg11.dtd">
<!-- Uploaded to: SVG Repo, www.svgrepo.com, Generator: SVG Repo Mixer Tools -->
<svg height="800px" width="800px" version="1.1" id="_x32_" xmlns="http://www.w3.org/2000/svg" xmlns:xlink="http://www.w3.org/1999/xlink" 
	 viewBox="0 0 512 512"  xml:space="preserve">
<style type="text/css">
	.st0{fill:#ffffff;}
</style>
<g>
	<path class="st0" d="M428.215,172.215c0.008-47.522-19.292-90.648-50.445-121.777C346.649,19.293,303.515-0.007,256,0
		c-47.514-0.007-90.648,19.293-121.769,50.446c-31.153,31.121-50.454,74.247-50.446,121.769
		c-0.008,31.786,8.673,61.634,23.754,87.181h-0.008c0.016,0.032,0.048,0.064,0.064,0.096c0.04,0.064,0.065,0.128,0.104,0.192
		l0.016-0.007c10.98,19.436,26.7,34.724,38.945,48.835c6.167,7.056,11.452,13.751,15,20.014c3.572,6.295,5.382,11.908,5.502,17.53
		v95.421c0.008,29.44,23.858,53.296,53.305,53.304h7.64C233.312,504.96,243.787,512,256,512c12.213,0,22.688-7.04,27.894-17.218
		h7.64c29.447-0.008,53.296-23.865,53.304-53.304v-95.414v-0.008c0.12-5.622,1.93-11.236,5.502-17.53
		c5.302-9.419,14.592-19.709,24.762-30.914c10.074-11.179,20.982-23.352,29.191-37.936l0.008,0.007
		c0.032-0.048,0.056-0.111,0.088-0.16c0.024-0.048,0.056-0.08,0.08-0.128h-0.008C419.542,233.849,428.223,204.001,428.215,172.215z
		 M311.828,461.771c-5.23,5.214-12.325,8.401-20.294,8.409h-71.068c-7.969-0.008-15.064-3.195-20.294-8.409
		c-5.213-5.23-8.401-12.333-8.409-20.294v-5.326l120.128,25.54C311.868,461.715,311.852,461.747,311.828,461.771z M320.237,441.477
		c0,1.754-0.216,3.452-0.513,5.11l-127.96-27.205v-33.524l128.473,27.316V441.477z M320.237,396.397L191.764,369.08V358.1h128.473
		V396.397z M383.143,247.142l-0.104,0.169l-0.064,0.112c-8.505,15.408-22.92,29.848-36.159,44.904
		c-6.607,7.576-12.918,15.361-17.867,24.034c-3.003,5.286-5.39,11.036-6.935,17.13H189.986c-1.546-6.102-3.932-11.844-6.944-17.13
		c-7.432-12.982-17.867-24.081-27.893-35.246c-10.059-11.1-19.733-22.159-26.124-33.692l-0.08-0.128l-0.089-0.152
		c-13.005-21.959-20.462-47.514-20.47-74.928c0.008-40.803,16.506-77.626,43.238-104.374C178.374,41.1,215.197,24.61,256,24.602
		C296.804,24.61,333.627,41.1,360.375,67.84c26.732,26.748,43.23,63.571,43.238,104.374
		C403.605,199.628,396.149,225.183,383.143,247.142z"/>
</g>
</svg>
