<?xml version="1.0" encoding="UTF-8" standalone="no"?>
<!DOCTYPE svg PUBLIC "-//W3C//DTD SVG 1.1//EN" "http://www.w3.org/Graphics/SVG/1.1/DTD/svg11.dtd">
<svg version="1.1" xmlns="http://www.w3.org/2000/svg" xmlns:xlink="http://www.w3.org/1999/xlink" preserveAspectRatio="xMidYMid meet" viewBox="0 0 640 640" width="128" height="128"><defs><path d="M272.58 33.21L278.33 33.78L284.01 34.57L289.61 35.58L295.14 36.8L300.58 38.22L305.94 39.85L311.2 41.67L316.37 43.69L321.43 45.9L326.39 48.29L331.24 50.87L335.97 53.61L340.58 56.53L345.07 59.62L349.43 62.87L353.65 66.27L357.74 69.83L361.68 73.53L365.48 77.38L367.5 79.6L369.17 78.22L372.07 76L375.06 73.9L378.13 71.91L381.28 70.03L384.51 68.28L387.81 66.65L391.19 65.14L394.63 63.76L398.13 62.52L401.7 61.41L405.32 60.44L409 59.61L412.73 58.92L416.51 58.38L420.34 57.99L424.21 57.75L428.12 57.68L432.03 57.75L435.9 57.99L439.73 58.38L443.51 58.92L447.25 59.61L450.93 60.44L454.55 61.41L458.12 62.52L461.62 63.76L465.06 65.14L468.43 66.65L471.74 68.28L474.96 70.03L478.11 71.91L481.19 73.9L484.17 76L487.08 78.22L489.89 80.54L492.61 82.97L495.24 85.49L497.77 88.12L500.19 90.84L502.51 93.65L504.73 96.56L506.83 99.55L508.82 102.62L510.7 105.77L512.45 109L514.08 112.3L515.12 114.62L517.85 114.89L522.32 115.49L526.73 116.26L531.08 117.2L535.36 118.29L539.57 119.54L543.71 120.94L547.78 122.49L551.76 124.18L555.66 126.02L559.48 127.99L563.2 130.1L566.83 132.34L570.36 134.7L573.79 137.19L577.11 139.81L580.33 142.53L583.43 145.38L586.42 148.33L589.29 151.39L592.03 154.55L594.65 157.82L597.13 161.18L599.48 164.63L601.7 168.18L603.77 171.81L605.7 175.52L607.48 179.31L609.11 183.18L610.58 187.12L611.89 191.13L613.04 195.21L614.02 199.35L614.83 203.54L615.47 207.8L615.93 212.1L616.21 216.45L616.3 220.85L616.21 225.25L615.93 229.6L615.47 233.91L614.83 238.16L614.02 242.35L613.04 246.49L611.89 250.57L610.58 254.58L609.11 258.52L607.48 262.39L605.7 266.18L603.77 269.89L601.7 273.52L599.48 277.07L597.13 280.52L594.65 283.88L592.03 287.15L589.29 290.31L586.42 293.37L583.43 296.32L580.33 299.17L577.11 301.9L573.79 304.51L570.36 307L566.83 309.36L563.2 311.6L559.48 313.71L558.8 314.06L558.87 317.17L558.78 321.51L558.52 325.81L558.09 330.06L557.49 334.26L556.72 338.4L555.8 342.49L554.72 346.51L553.49 350.47L552.11 354.36L550.58 358.18L548.91 361.93L547.09 365.59L545.15 369.18L543.07 372.68L540.86 376.09L538.52 379.41L536.06 382.63L533.48 385.75L530.79 388.77L527.98 391.69L525.06 394.5L522.04 397.19L518.92 399.77L515.7 402.23L512.38 404.56L508.97 406.77L505.47 408.86L501.88 410.8L498.22 412.62L494.47 414.29L490.65 415.82L486.76 417.2L482.8 418.43L478.78 419.51L474.69 420.43L470.55 421.2L466.35 421.79L462.1 422.23L457.8 422.49L453.46 422.58L449.12 422.49L444.82 422.23L440.57 421.79L436.37 421.2L432.23 420.43L428.14 419.51L424.12 418.43L420.16 417.2L416.27 415.82L412.45 414.29L408.7 412.62L406.61 411.58L403.12 415.59L399.38 419.57L395.49 423.4L391.46 427.08L387.3 430.6L383 433.95L378.58 437.14L374.04 440.16L369.37 443L364.59 445.66L359.71 448.13L354.72 450.41L349.62 452.5L344.44 454.39L339.16 456.07L333.79 457.54L328.35 458.8L322.82 459.84L317.23 460.66L311.56 461.25L305.83 461.61L300.05 461.73L294.26 461.61L288.53 461.25L282.87 460.66L277.27 459.84L271.75 458.8L266.3 457.54L260.93 456.07L255.66 454.39L250.47 452.5L245.38 450.41L240.39 448.13L235.5 445.66L230.72 443L226.06 440.16L221.51 437.14L217.09 433.95L212.79 430.6L208.63 427.08L204.6 423.4L200.71 419.57L196.97 415.59L193.38 411.46L189.94 407.2L186.67 402.8L183.55 398.27L180.61 393.61L177.83 388.84L176.86 387.01L176.7 387.05L171.8 388.17L166.83 389.1L161.8 389.83L156.7 390.36L151.55 390.68L146.35 390.78L141.14 390.68L135.99 390.36L130.9 389.83L125.86 389.1L120.9 388.17L116 387.05L111.18 385.74L106.43 384.23L101.76 382.55L97.19 380.69L92.7 378.65L88.3 376.44L84.01 374.07L79.81 371.54L75.72 368.85L71.75 366L67.88 363L64.14 359.86L60.52 356.58L57.02 353.16L53.66 349.61L50.43 345.93L47.34 342.13L44.39 338.2L41.59 334.16L38.94 330.01L36.44 325.75L34.11 321.38L31.94 316.92L29.93 312.36L28.1 307.7L26.44 302.96L24.97 298.14L23.67 293.24L22.57 288.26L21.65 283.22L20.93 278.1L20.42 272.93L20.1 267.69L20 262.4L20.1 257.12L20.42 251.88L20.93 246.71L21.65 241.59L22.57 236.55L23.67 231.57L24.97 226.67L26.44 221.85L28.1 217.11L29.93 212.45L31.94 207.89L34.11 203.43L36.44 199.06L38.94 194.8L41.59 190.65L44.39 186.61L47.34 182.68L50.43 178.88L53.66 175.2L57.02 171.65L60.52 168.23L64.14 164.95L67.88 161.8L71.75 158.81L75.72 155.96L79.81 153.27L84.01 150.74L88.3 148.36L92.7 146.16L97.19 144.12L101.76 142.26L106.43 140.58L111.18 139.07L116 137.76L120.9 136.64L123.1 136.23L123.93 133.19L125.6 127.96L127.47 122.82L129.54 117.78L131.8 112.84L134.25 107.99L136.88 103.26L139.7 98.64L142.69 94.14L145.85 89.76L149.17 85.5L152.66 81.38L156.31 77.38L160.1 73.53L164.05 69.83L168.13 66.27L172.36 62.87L176.72 59.62L181.21 56.53L185.82 53.61L190.55 50.87L195.4 48.29L200.36 45.9L205.42 43.69L210.59 41.67L215.85 39.85L221.21 38.22L226.65 36.8L232.18 35.58L237.78 34.57L243.46 33.78L249.21 33.21L255.02 32.86L260.89 32.75L266.77 32.86L272.58 33.21Z" id="b16bjkfelL"></path><linearGradient id="gradientc33HQh27aZ" gradientUnits="userSpaceOnUse" x1="318.15" y1="32.75" x2="318.15" y2="461.73"><stop style="stop-color: #ffffff;stop-opacity: 1" offset="0%"></stop><stop style="stop-color: #e0e0e0;stop-opacity: 1" offset="100%"></stop></linearGradient><path d="M452.91 509.7C452.91 536.18 429.29 557.68 400.21 557.68C371.12 557.68 347.5 536.18 347.5 509.7C347.5 483.23 371.12 461.73 400.21 461.73C429.29 461.73 452.91 483.23 452.91 509.7Z" id="k1z5szEyZ7"></path><path d="M296.53 555.3C296.53 576.55 278.65 593.81 256.63 593.81C234.6 593.81 216.72 576.55 216.72 555.3C216.72 534.04 234.6 516.78 256.63 516.78C278.65 516.78 296.53 534.04 296.53 555.3Z" id="i1dWBxciv4"></path><path d="M361.39 170.92L327.54 198.07L296.53 222.95" id="a3sduYxIbo"></path><path d="M490.72 139.23C494.82 139.23 498.14 142.55 498.14 146.65C498.14 160.3 498.14 193.83 498.14 207.48C498.14 211.58 494.82 214.9 490.72 214.9C463.42 214.9 388.95 214.9 361.65 214.9C357.55 214.9 354.22 211.58 354.22 207.48C354.22 193.83 354.22 160.3 354.22 146.65C354.22 142.55 357.55 139.23 361.65 139.23C388.95 139.23 463.42 139.23 490.72 139.23Z" id="b1Uu1ewGb"></path><path d="M361.39 333.62L327.54 306.47L296.53 281.59" id="b4EML11Oyk"></path><path d="M297.34 214.9C302.86 214.9 307.34 219.38 307.34 224.9C307.34 238.04 307.34 267.45 307.34 280.58C307.34 286.1 302.86 290.58 297.34 290.58C260.55 290.58 160.2 290.58 123.42 290.58C117.9 290.58 113.42 286.1 113.42 280.58C113.42 267.45 113.42 238.04 113.42 224.9C113.42 219.38 117.9 214.9 123.42 214.9C160.2 214.9 260.55 214.9 297.34 214.9Z" id="b24bcEG6b5"></path><path d="M490.72 290.58C494.82 290.58 498.14 293.9 498.14 298C498.14 311.65 498.14 345.18 498.14 358.83C498.14 362.93 494.82 366.26 490.72 366.26C463.42 366.26 388.95 366.26 361.65 366.26C357.55 366.26 354.22 362.93 354.22 358.83C354.22 345.18 354.22 311.65 354.22 298C354.22 293.9 357.55 290.58 361.65 290.58C388.95 290.58 463.42 290.58 490.72 290.58Z" id="d4HHCachsN"></path></defs><g><g><g><filter id="shadow10818811" x="2" y="14.75" width="633.3" height="474.98" filterUnits="userSpaceOnUse" primitiveUnits="userSpaceOnUse"><feFlood></feFlood><feComposite in2="SourceAlpha" operator="in"></feComposite><feGaussianBlur stdDeviation="1"></feGaussianBlur><feOffset dx="1" dy="10" result="afterOffset"></feOffset><feFlood flood-color="#cccccc" flood-opacity="1"></feFlood><feComposite in2="afterOffset" operator="in"></feComposite><feMorphology operator="dilate" radius="1"></feMorphology><feComposite in2="SourceAlpha" operator="out"></feComposite></filter><path d="M272.58 33.21L278.33 33.78L284.01 34.57L289.61 35.58L295.14 36.8L300.58 38.22L305.94 39.85L311.2 41.67L316.37 43.69L321.43 45.9L326.39 48.29L331.24 50.87L335.97 53.61L340.58 56.53L345.07 59.62L349.43 62.87L353.65 66.27L357.74 69.83L361.68 73.53L365.48 77.38L367.5 79.6L369.17 78.22L372.07 76L375.06 73.9L378.13 71.91L381.28 70.03L384.51 68.28L387.81 66.65L391.19 65.14L394.63 63.76L398.13 62.52L401.7 61.41L405.32 60.44L409 59.61L412.73 58.92L416.51 58.38L420.34 57.99L424.21 57.75L428.12 57.68L432.03 57.75L435.9 57.99L439.73 58.38L443.51 58.92L447.25 59.61L450.93 60.44L454.55 61.41L458.12 62.52L461.62 63.76L465.06 65.14L468.43 66.65L471.74 68.28L474.96 70.03L478.11 71.91L481.19 73.9L484.17 76L487.08 78.22L489.89 80.54L492.61 82.97L495.24 85.49L497.77 88.12L500.19 90.84L502.51 93.65L504.73 96.56L506.83 99.55L508.82 102.62L510.7 105.77L512.45 109L514.08 112.3L515.12 114.62L517.85 114.89L522.32 115.49L526.73 116.26L531.08 117.2L535.36 118.29L539.57 119.54L543.71 120.94L547.78 122.49L551.76 124.18L555.66 126.02L559.48 127.99L563.2 130.1L566.83 132.34L570.36 134.7L573.79 137.19L577.11 139.81L580.33 142.53L583.43 145.38L586.42 148.33L589.29 151.39L592.03 154.55L594.65 157.82L597.13 161.18L599.48 164.63L601.7 168.18L603.77 171.81L605.7 175.52L607.48 179.31L609.11 183.18L610.58 187.12L611.89 191.13L613.04 195.21L614.02 199.35L614.83 203.54L615.47 207.8L615.93 212.1L616.21 216.45L616.3 220.85L616.21 225.25L615.93 229.6L615.47 233.91L614.83 238.16L614.02 242.35L613.04 246.49L611.89 250.57L610.58 254.58L609.11 258.52L607.48 262.39L605.7 266.18L603.77 269.89L601.7 273.52L599.48 277.07L597.13 280.52L594.65 283.88L592.03 287.15L589.29 290.31L586.42 293.37L583.43 296.32L580.33 299.17L577.11 301.9L573.79 304.51L570.36 307L566.83 309.36L563.2 311.6L559.48 313.71L558.8 314.06L558.87 317.17L558.78 321.51L558.52 325.81L558.09 330.06L557.49 334.26L556.72 338.4L555.8 342.49L554.72 346.51L553.49 350.47L552.11 354.36L550.58 358.18L548.91 361.93L547.09 365.59L545.15 369.18L543.07 372.68L540.86 376.09L538.52 379.41L536.06 382.63L533.48 385.75L530.79 388.77L527.98 391.69L525.06 394.5L522.04 397.19L518.92 399.77L515.7 402.23L512.38 404.56L508.97 406.77L505.47 408.86L501.88 410.8L498.22 412.62L494.47 414.29L490.65 415.82L486.76 417.2L482.8 418.43L478.78 419.51L474.69 420.43L470.55 421.2L466.35 421.79L462.1 422.23L457.8 422.49L453.46 422.58L449.12 422.49L444.82 422.23L440.57 421.79L436.37 421.2L432.23 420.43L428.14 419.51L424.12 418.43L420.16 417.2L416.27 415.82L412.45 414.29L408.7 412.62L406.61 411.58L403.12 415.59L399.38 419.57L395.49 423.4L391.46 427.08L387.3 430.6L383 433.95L378.58 437.14L374.04 440.16L369.37 443L364.59 445.66L359.71 448.13L354.72 450.41L349.62 452.5L344.44 454.39L339.16 456.07L333.79 457.54L328.35 458.8L322.82 459.84L317.23 460.66L311.56 461.25L305.83 461.61L300.05 461.73L294.26 461.61L288.53 461.25L282.87 460.66L277.27 459.84L271.75 458.8L266.3 457.54L260.93 456.07L255.66 454.39L250.47 452.5L245.38 450.41L240.39 448.13L235.5 445.66L230.72 443L226.06 440.16L221.51 437.14L217.09 433.95L212.79 430.6L208.63 427.08L204.6 423.4L200.71 419.57L196.97 415.59L193.38 411.46L189.94 407.2L186.67 402.8L183.55 398.27L180.61 393.61L177.83 388.84L176.86 387.01L176.7 387.05L171.8 388.17L166.83 389.1L161.8 389.83L156.7 390.36L151.55 390.68L146.35 390.78L141.14 390.68L135.99 390.36L130.9 389.83L125.86 389.1L120.9 388.17L116 387.05L111.18 385.74L106.43 384.23L101.76 382.55L97.19 380.69L92.7 378.65L88.3 376.44L84.01 374.07L79.81 371.54L75.72 368.85L71.75 366L67.88 363L64.14 359.86L60.52 356.58L57.02 353.16L53.66 349.61L50.43 345.93L47.34 342.13L44.39 338.2L41.59 334.16L38.94 330.01L36.44 325.75L34.11 321.38L31.94 316.92L29.93 312.36L28.1 307.7L26.44 302.96L24.97 298.14L23.67 293.24L22.57 288.26L21.65 283.22L20.93 278.1L20.42 272.93L20.1 267.69L20 262.4L20.1 257.12L20.42 251.88L20.93 246.71L21.65 241.59L22.57 236.55L23.67 231.57L24.97 226.67L26.44 221.85L28.1 217.11L29.93 212.45L31.94 207.89L34.11 203.43L36.44 199.06L38.94 194.8L41.59 190.65L44.39 186.61L47.34 182.68L50.43 178.88L53.66 175.2L57.02 171.65L60.52 168.23L64.14 164.95L67.88 161.8L71.75 158.81L75.72 155.96L79.81 153.27L84.01 150.74L88.3 148.36L92.7 146.16L97.19 144.12L101.76 142.26L106.43 140.58L111.18 139.07L116 137.76L120.9 136.64L123.1 136.23L123.93 133.19L125.6 127.96L127.47 122.82L129.54 117.78L131.8 112.84L134.25 107.99L136.88 103.26L139.7 98.64L142.69 94.14L145.85 89.76L149.17 85.5L152.66 81.38L156.31 77.38L160.1 73.53L164.05 69.83L168.13 66.27L172.36 62.87L176.72 59.62L181.21 56.53L185.82 53.61L190.55 50.87L195.4 48.29L200.36 45.9L205.42 43.69L210.59 41.67L215.85 39.85L221.21 38.22L226.65 36.8L232.18 35.58L237.78 34.57L243.46 33.78L249.21 33.21L255.02 32.86L260.89 32.75L266.77 32.86L272.58 33.21Z" id="hHs49uYI" fill="white" fill-opacity="1" filter="url(#shadow10818811)"></path></g><use xlink:href="#b16bjkfelL" opacity="1" fill="url(#gradientc33HQh27aZ)"></use><g><use xlink:href="#b16bjkfelL" opacity="1" fill-opacity="0" stroke="#000000" stroke-width="1" stroke-opacity="1"></use></g></g><g><g><filter id="shadow4519085" x="329.5" y="443.73" width="142.41" height="141.95" filterUnits="userSpaceOnUse" primitiveUnits="userSpaceOnUse"><feFlood></feFlood><feComposite in2="SourceAlpha" operator="in"></feComposite><feGaussianBlur stdDeviation="1"></feGaussianBlur><feOffset dx="1" dy="10" result="afterOffset"></feOffset><feFlood flood-color="#cccccc" flood-opacity="1"></feFlood><feComposite in2="afterOffset" operator="in"></feComposite><feMorphology operator="dilate" radius="1"></feMorphology><feComposite in2="SourceAlpha" operator="out"></feComposite></filter><path d="M452.91 509.7C452.91 536.18 429.29 557.68 400.21 557.68C371.12 557.68 347.5 536.18 347.5 509.7C347.5 483.23 371.12 461.73 400.21 461.73C429.29 461.73 452.91 483.23 452.91 509.7Z" id="b1oIEfc2z3" fill="white" fill-opacity="1" filter="url(#shadow4519085)"></path></g><use xlink:href="#k1z5szEyZ7" opacity="1" fill="#e0e0e0" fill-opacity="1"></use><g><use xlink:href="#k1z5szEyZ7" opacity="1" fill-opacity="0" stroke="#000000" stroke-width="1" stroke-opacity="1"></use></g></g><g><g><filter id="shadow12111685" x="198.72" y="498.78" width="116.8" height="123.03" filterUnits="userSpaceOnUse" primitiveUnits="userSpaceOnUse"><feFlood></feFlood><feComposite in2="SourceAlpha" operator="in"></feComposite><feGaussianBlur stdDeviation="1"></feGaussianBlur><feOffset dx="1" dy="10" result="afterOffset"></feOffset><feFlood flood-color="#cccccc" flood-opacity="0.5"></feFlood><feComposite in2="afterOffset" operator="in"></feComposite><feMorphology operator="dilate" radius="1"></feMorphology><feComposite in2="SourceAlpha" operator="out"></feComposite></filter><path d="M296.53 555.3C296.53 576.55 278.65 593.81 256.63 593.81C234.6 593.81 216.72 576.55 216.72 555.3C216.72 534.04 234.6 516.78 256.63 516.78C278.65 516.78 296.53 534.04 296.53 555.3Z" id="edWzzqVA1" fill="white" fill-opacity="1" filter="url(#shadow12111685)"></path></g><use xlink:href="#i1dWBxciv4" opacity="1" fill="#e0e0e0" fill-opacity="1"></use><g><use xlink:href="#i1dWBxciv4" opacity="1" fill-opacity="0" stroke="#000000" stroke-width="1" stroke-opacity="1"></use></g></g><g><use xlink:href="#a3sduYxIbo" opacity="1" fill="#000000" fill-opacity="1"></use><g><use xlink:href="#a3sduYxIbo" opacity="1" fill-opacity="0" stroke="#000000" stroke-width="10" stroke-opacity="1"></use></g></g><g><use xlink:href="#b1Uu1ewGb" opacity="1" fill="#68b723" fill-opacity="1"></use><g><use xlink:href="#b1Uu1ewGb" opacity="1" fill-opacity="0" stroke="#000000" stroke-width="1" stroke-opacity="1"></use></g></g><g><use xlink:href="#b4EML11Oyk" opacity="1" fill="#000000" fill-opacity="1"></use><g><use xlink:href="#b4EML11Oyk" opacity="1" fill-opacity="0" stroke="#000000" stroke-width="10" stroke-opacity="1"></use></g></g><g><use xlink:href="#b24bcEG6b5" opacity="1" fill="#c6262e" fill-opacity="1"></use><g><use xlink:href="#b24bcEG6b5" opacity="1" fill-opacity="0" stroke="#000000" stroke-width="1" stroke-opacity="1"></use></g></g><g><use xlink:href="#d4HHCachsN" opacity="1" fill="#3689e6" fill-opacity="1"></use><g><use xlink:href="#d4HHCachsN" opacity="1" fill-opacity="0" stroke="#000000" stroke-width="1" stroke-opacity="1"></use></g></g></g></svg>
