<?xml version="1.0" encoding="UTF-8" standalone="no"?>
<!-- Created with Inkscape (http://www.inkscape.org/) -->

<svg
   xmlns:dc="http://purl.org/dc/elements/1.1/"
   xmlns:cc="http://creativecommons.org/ns#"
   xmlns:rdf="http://www.w3.org/1999/02/22-rdf-syntax-ns#"
   xmlns:svg="http://www.w3.org/2000/svg"
   xmlns="http://www.w3.org/2000/svg"
   xmlns:sodipodi="http://sodipodi.sourceforge.net/DTD/sodipodi-0.dtd"
   xmlns:inkscape="http://www.inkscape.org/namespaces/inkscape"
   width="16"
   height="16"
   id="svg3426"
   version="1.1"
   inkscape:version="0.91 r13725"
   viewBox="0 0 16 16"
   sodipodi:docname="minder-detach.svg">
  <defs
     id="defs3428" />
  <sodipodi:namedview
     id="base"
     pagecolor="#ffffff"
     bordercolor="#000000"
     borderopacity="1.0"
     inkscape:pageopacity="0.0"
     inkscape:pageshadow="2"
     inkscape:zoom="22.197802"
     inkscape:cx="0.73564329"
     inkscape:cy="8"
     inkscape:current-layer="layer1"
     showgrid="true"
     inkscape:grid-bbox="true"
     inkscape:document-units="px"
     inkscape:window-width="1366"
     inkscape:window-height="710"
     inkscape:window-x="0"
     inkscape:window-y="30"
     inkscape:window-maximized="1" />
  <metadata
     id="metadata3431">
    <rdf:RDF>
      <cc:Work
         rdf:about="">
        <dc:format>image/svg+xml</dc:format>
        <dc:type
           rdf:resource="http://purl.org/dc/dcmitype/StillImage" />
        <dc:title></dc:title>
      </cc:Work>
    </rdf:RDF>
  </metadata>
  <g
     id="layer1"
     inkscape:label="Layer 1"
     inkscape:groupmode="layer">
    <path
       style="color:#000000;font-style:normal;font-variant:normal;font-weight:normal;font-stretch:normal;font-size:medium;line-height:normal;font-family:sans-serif;text-indent:0;text-align:start;text-decoration:none;text-decoration-line:none;text-decoration-style:solid;text-decoration-color:#000000;letter-spacing:normal;word-spacing:normal;text-transform:none;direction:ltr;block-progression:tb;writing-mode:lr-tb;baseline-shift:baseline;text-anchor:start;white-space:normal;clip-rule:nonzero;display:inline;overflow:visible;visibility:visible;opacity:1;isolation:auto;mix-blend-mode:normal;color-interpolation:sRGB;color-interpolation-filters:linearRGB;solid-color:#000000;solid-opacity:1;fill:#000000;fill-opacity:1;fill-rule:evenodd;stroke:none;stroke-width:1.15635955px;stroke-linecap:butt;stroke-linejoin:miter;stroke-miterlimit:4;stroke-dasharray:none;stroke-dashoffset:0;stroke-opacity:1;color-rendering:auto;image-rendering:auto;shape-rendering:auto;text-rendering:auto;enable-background:accumulate"
       d="M 13.599609 0.015625 C 13.370175 0.006173197 13.13601 0.020781567 12.902344 0.056640625 C 11.967681 0.20007706 10.990289 0.67371967 10.132812 1.4296875 C 9.2753356 2.1856553 8.685231 3.0926374 8.4257812 4.0019531 C 8.1980846 4.7999809 8.2343696 5.6388275 8.6542969 6.2949219 L 7.9746094 6.9277344 L 8.8359375 7.7304688 L 9.1835938 7.40625 L 9.5507812 7.0644531 C 10.081567 7.32205 10.705465 7.3972362 11.333984 7.3007812 C 12.268647 7.1573452 13.244084 6.6856545 14.101562 5.9296875 C 14.959039 5.1737197 15.551097 4.2647849 15.810547 3.3554688 C 16.069997 2.4461538 15.988216 1.4833082 15.384766 0.79882812 C 14.932177 0.2854676 14.287912 0.043980409 13.599609 0.015625 z M 13.544922 1.1679688 C 13.978598 1.1812859 14.306626 1.3251755 14.517578 1.5644531 C 14.798846 1.8834888 14.88533 2.3867809 14.699219 3.0390625 C 14.513107 3.6913441 14.043082 4.4390675 13.335938 5.0625 C 12.628792 5.6859324 11.83062 6.0553118 11.160156 6.1582031 C 10.919438 6.1951445 10.710361 6.1901456 10.517578 6.1660156 L 11.306641 5.4316406 L 10.443359 4.6289062 L 9.5351562 5.4746094 C 9.4171866 5.17288 9.403685 4.7859831 9.5371094 4.3183594 C 9.7232211 3.666078 10.191293 2.9203075 10.898438 2.296875 C 11.605583 1.6734426 12.405708 1.3021104 13.076172 1.1992188 C 13.243788 1.1734959 13.400363 1.1635297 13.544922 1.1679688 z "
       id="path3434" />
    <path
       style="color:#000000;font-style:normal;font-variant:normal;font-weight:normal;font-stretch:normal;font-size:medium;line-height:normal;font-family:sans-serif;text-indent:0;text-align:start;text-decoration:none;text-decoration-line:none;text-decoration-style:solid;text-decoration-color:#000000;letter-spacing:normal;word-spacing:normal;text-transform:none;direction:ltr;block-progression:tb;writing-mode:lr-tb;baseline-shift:baseline;text-anchor:start;white-space:normal;clip-rule:nonzero;display:inline;overflow:visible;visibility:visible;opacity:1;isolation:auto;mix-blend-mode:normal;color-interpolation:sRGB;color-interpolation-filters:linearRGB;solid-color:#000000;solid-opacity:1;fill:#000000;fill-opacity:1;fill-rule:evenodd;stroke:none;stroke-width:1.15635955px;stroke-linecap:butt;stroke-linejoin:miter;stroke-miterlimit:4;stroke-dasharray:none;stroke-dashoffset:0;stroke-opacity:1;color-rendering:auto;image-rendering:auto;shape-rendering:auto;text-rendering:auto;enable-background:accumulate"
       d="M 7.2460938 8.2734375 L 6.515625 8.953125 C 5.970184 8.6651805 5.3134471 8.5827384 4.65625 8.6835938 C 3.7215869 8.8270301 2.7481022 9.3006727 1.890625 10.056641 C 1.0331479 10.812609 0.44109037 11.71959 0.18164062 12.628906 C -0.077808775 13.538222 0.003970825 14.501066 0.60742188 15.185547 C 1.2108722 15.870027 2.1571336 16.07117 3.0917969 15.927734 C 4.0264597 15.784297 4.9999447 15.312608 5.8574219 14.556641 C 6.7148991 13.800673 7.3069561 12.89369 7.5664062 11.984375 C 7.7866264 11.21255 7.7584653 10.402079 7.3769531 9.7558594 L 8.109375 9.0742188 L 7.2460938 8.2734375 z M 5.3007812 9.7949219 C 5.3985765 9.797925 5.4833939 9.8161938 5.5703125 9.8320312 L 4.7773438 10.570312 L 5.6386719 11.373047 L 5.9863281 11.048828 L 6.4804688 10.587891 C 6.5721782 10.878496 6.5777263 11.236161 6.4550781 11.666016 C 6.2689668 12.318298 5.8008953 13.06602 5.09375 13.689453 C 4.3866046 14.312885 3.5864798 14.682265 2.9160156 14.785156 C 2.2455522 14.888048 1.7578303 14.738958 1.4765625 14.419922 C 1.195294 14.100886 1.1088105 13.597594 1.2949219 12.945312 C 1.4810339 12.293031 1.9471516 11.54726 2.6542969 10.923828 C 3.3614422 10.300395 4.1615678 9.9290639 4.8320312 9.8261719 C 4.9996473 9.8004491 5.1562226 9.7904828 5.3007812 9.7949219 z "
       id="path3434-3" />
    <path
       style="color:#000000;font-style:normal;font-variant:normal;font-weight:normal;font-stretch:normal;font-size:medium;line-height:normal;font-family:sans-serif;text-indent:0;text-align:start;text-decoration:none;text-decoration-line:none;text-decoration-style:solid;text-decoration-color:#000000;letter-spacing:normal;word-spacing:normal;text-transform:none;direction:ltr;block-progression:tb;writing-mode:lr-tb;baseline-shift:baseline;text-anchor:start;white-space:normal;clip-rule:nonzero;display:inline;overflow:visible;visibility:visible;opacity:1;isolation:auto;mix-blend-mode:normal;color-interpolation:sRGB;color-interpolation-filters:linearRGB;solid-color:#000000;solid-opacity:1;fill:#000000;fill-opacity:1;fill-rule:nonzero;stroke:none;stroke-width:0.91493493;stroke-linecap:butt;stroke-linejoin:miter;stroke-miterlimit:4;stroke-dasharray:none;stroke-dashoffset:0;stroke-opacity:1;color-rendering:auto;image-rendering:auto;shape-rendering:auto;text-rendering:auto;enable-background:accumulate"
       d="m -0.01367188,6.6816406 0.45703126,0 2.79492182,0 0,-1.1347656 -3.25195308,0 0,1.1347656 z"
       id="rect4276-7-5"
       inkscape:connector-curvature="0" />
    <path
       style="color:#000000;font-style:normal;font-variant:normal;font-weight:normal;font-stretch:normal;font-size:medium;line-height:normal;font-family:sans-serif;text-indent:0;text-align:start;text-decoration:none;text-decoration-line:none;text-decoration-style:solid;text-decoration-color:#000000;letter-spacing:normal;word-spacing:normal;text-transform:none;direction:ltr;block-progression:tb;writing-mode:lr-tb;baseline-shift:baseline;text-anchor:start;white-space:normal;clip-rule:nonzero;display:inline;overflow:visible;visibility:visible;opacity:1;isolation:auto;mix-blend-mode:normal;color-interpolation:sRGB;color-interpolation-filters:linearRGB;solid-color:#000000;solid-opacity:1;fill:#000000;fill-opacity:1;fill-rule:nonzero;stroke:none;stroke-width:0.91493493;stroke-linecap:butt;stroke-linejoin:miter;stroke-miterlimit:4;stroke-dasharray:none;stroke-dashoffset:0;stroke-opacity:1;color-rendering:auto;image-rendering:auto;shape-rendering:auto;text-rendering:auto;enable-background:accumulate"
       d="m 6.9726562,3.2753906 0,-0.4570312 0,-2.7949219 -1.1367187,0 0,3.2519531 1.1367187,0 z"
       id="rect4276-7-5-3"
       inkscape:connector-curvature="0" />
    <path
       style="color:#000000;font-style:normal;font-variant:normal;font-weight:normal;font-stretch:normal;font-size:medium;line-height:normal;font-family:sans-serif;text-indent:0;text-align:start;text-decoration:none;text-decoration-line:none;text-decoration-style:solid;text-decoration-color:#000000;letter-spacing:normal;word-spacing:normal;text-transform:none;direction:ltr;block-progression:tb;writing-mode:lr-tb;baseline-shift:baseline;text-anchor:start;white-space:normal;clip-rule:nonzero;display:inline;overflow:visible;visibility:visible;opacity:1;isolation:auto;mix-blend-mode:normal;color-interpolation:sRGB;color-interpolation-filters:linearRGB;solid-color:#000000;solid-opacity:1;fill:#000000;fill-opacity:1;fill-rule:nonzero;stroke:none;stroke-width:0.91493493;stroke-linecap:butt;stroke-linejoin:miter;stroke-miterlimit:4;stroke-dasharray:none;stroke-dashoffset:0;stroke-opacity:1;color-rendering:auto;image-rendering:auto;shape-rendering:auto;text-rendering:auto;enable-background:accumulate"
       d="M 3.7275023,2.8491431 3.4043325,2.5259733 1.4280242,0.54966504 0.6242427,1.3534466 2.9237208,3.6529247 3.7275023,2.8491431 Z"
       id="rect4276-7-5-3-5"
       inkscape:connector-curvature="0" />
  </g>
</svg>
